HIERARCHY
ROOT Hips
{
  OFFSET -33.9132 29.2015 117.021
  CHANNELS 6 Xposition Yposition Zposition Zrotation Xrotation Yrotation
  JOINT LeftUpLeg
  {
    OFFSET 8.64259 1.95398 -2.38835
    CHANNELS 3 Zrotation Xrotation Yrotation
    JOINT LeftLeg
    {
      OFFSET 43.7702 0 0
      CHANNELS 3 Zrotation Xrotation Yrotation
      JOINT LeftFoot
      {
        OFFSET 40.6238 0 0
        CHANNELS 3 Zrotation Xrotation Yrotation
        JOINT LeftToeBase
        {
          OFFSET 12.7242 0 0
          CHANNELS 3 Zrotation Xrotation Yrotation
          End Site
          {
            OFFSET 0 0 0
          }
        }
      }
    }
  }
  JOINT RightUpLeg
  {
    OFFSET -8.2249 1.95398 -2.59336
    CHANNELS 3 Zrotation Xrotation Yrotation
    JOINT RightLeg
    {
      OFFSET 43.5653 0 0
      CHANNELS 3 Zrotation Xrotation Yrotation
      JOINT RightFoot
      {
        OFFSET 40.6238 0 0
        CHANNELS 3 Zrotation Xrotation Yrotation
        JOINT RightToeBase
        {
          OFFSET 12.7242 0 0
          CHANNELS 3 Zrotation Xrotation Yrotation
          End Site
          {
            OFFSET 0 0 0
          }
        }
      }
    }
  }
  JOINT Spine
  {
    OFFSET 0.165834 0.87714 6.61349
    CHANNELS 3 Zrotation Xrotation Yrotation
    JOINT Spine1
    {
      OFFSET 7.38963 1.71661e-005 0
      CHANNELS 3 Zrotation Xrotation Yrotation
      JOINT Spine2
      {
        OFFSET 11.9445 1.14441e-005 0
        CHANNELS 3 Zrotation Xrotation Yrotation
        JOINT Spine3
        {
          OFFSET 14.7254 4.19617e-005 0
          CHANNELS 3 Zrotation Xrotation Yrotation
          JOINT Spine4
          {
            OFFSET 10.9679 0 0
            CHANNELS 3 Zrotation Xrotation Yrotation
            JOINT RightShoulder
            {
              OFFSET 2.46616 -1.6653 3.69651
              CHANNELS 3 Zrotation Xrotation Yrotation
              JOINT RightArm
              {
                OFFSET 13.0012 0 0
                CHANNELS 3 Zrotation Xrotation Yrotation
                JOINT RightForeArm
                {
                  OFFSET 28.7848 1.62311e-005 0
                  CHANNELS 3 Zrotation Xrotation Yrotation
                  JOINT RightHand
                  {
                    OFFSET 26.5688 1.62095e-005 0
                    CHANNELS 3 Zrotation Xrotation Yrotation
                    End Site
                    {
                      OFFSET 0 0 0
                    }
                  }
                }
              }
            }
            JOINT LeftShoulder
            {
              OFFSET 2.38034 -1.29275 -3.7523
              CHANNELS 3 Zrotation Xrotation Yrotation
              JOINT LeftArm
              {
                OFFSET 16.3182 6.07031e-005 0
                CHANNELS 3 Zrotation Xrotation Yrotation
                JOINT LeftForeArm
                {
                  OFFSET 27.0901 0 0
                  CHANNELS 3 Zrotation Xrotation Yrotation
                  JOINT LeftHand
                  {
                    OFFSET 24.5451 1.51738e-005 0
                    CHANNELS 3 Zrotation Xrotation Yrotation
                    End Site
                    {
                      OFFSET 0 0 0
                    }
                  }
                }
              }
            }
            JOINT Neck
            {
              OFFSET 5.0226 -0.0266342 0
              CHANNELS 3 Zrotation Xrotation Yrotation
              JOINT Head
              {
                OFFSET 6.69364 2.86102e-005 0
                CHANNELS 3 Zrotation Xrotation Yrotation
                End Site
                {
                  OFFSET 0 0 0
                }
              }
            }
          }
        }
      }
    }
  }
}
MOTION
Frames:	18
Frame Time:	0.0416667
1.2331 97.4927 -88.1222 -160.033 -80.0948 -162.621 -177.293 15.1141 85.0436 -8.73473 1.35424 -1.89446 61.8528 1.44642 -3.82936 16.8078 -10.8789 8.80393 170.866 -18.5691 87.8705 -20.4119 -16.7164 -1.5289 78.4094 -12.2423 -3.5985 30.5188 -1.60728 3.37796 1.1365 8.24311 -89.7095 10.385 2.39714 0.367653 -1.28381 2.411 0.261722 -23.8337 2.17577 1.07141 -3.82103 2.17578 1.07141 89.5865 -26.6589 -108.964 42.7667 3.68151 -21.2661 -5.20889 -40.6513 -5.39717 -20.8383 2.96969 -21.8032 -89.5785 -54.6313 80.278 -15.7117 -11.6354 3.93893 -11.0048 26.7556 -0.00998628 3.6189 -0.221213 -13.125 -1.80832 -2.78217 1.06497 0.272117 -2.97898 -3.5452 
1.6601 97.5378 -80.5056 -145.486 -78.9459 -149.021 -176.335 16.0471 84.3279 -16.5476 3.12568 -2.52803 57.0687 -2.35702 -2.94246 11.6795 -12.7147 6.73569 169.138 -20.8147 84.5668 -22.3244 -20.524 -3.1241 72.7592 -9.05296 -4.37376 38.1229 -4.68007 3.33241 1.32277 8.08585 -89.5096 10.6953 2.86017 0.712674 -0.972637 2.88876 0.585998 -23.5268 2.51369 1.53977 -3.51418 2.5137 1.53977 89.2974 -26.7069 -109.542 45.4266 2.95425 -18.3863 -5.24529 -41.199 -5.41813 -19.2243 2.50199 -20.4275 -89.1014 -55.2171 81.0643 -16.0545 -13.6889 5.21141 -10.1733 25.415 -0.0111597 2.50967 -0.165205 -13.7647 -1.99187 -2.4954 0.255509 -0.896689 -2.55901 -3.46337 
2.04949 97.7494 -73.1254 -143.169 -78.3545 -148.506 -175.191 15.0787 82.1258 -24.4386 4.17291 -3.57256 62.6855 0.864474 -2.22358 5.99094 -14.8345 4.71156 168.442 -18.0893 81.4863 -32.2904 -21.6523 -4.92136 65.1232 -3.76575 -3.74466 43.3641 -7.19616 7.65978 1.22841 7.96297 -89.2393 10.933 2.79766 1.24858 -0.735388 2.8499 1.12416 -23.2833 2.2931 2.03188 -3.2706 2.2931 2.03187 89.64 -26.4456 -108.947 49.088 2.21309 -14.3215 -5.35129 -42.75 -5.48056 -15.3703 1.75364 -18.7857 -89.2797 -54.9878 80.7695 -15.8321 -13.7909 3.8937 -9.99677 25.4264 -0.0126361 2.46796 -0.154494 -13.8163 -2.53573 -2.40732 -0.307934 -2.74414 -2.35341 -4.03574 
2.30442 98.2315 -67.0107 -140.928 -77.1722 -147.415 -175.061 10.9076 80.6542 -26.1726 3.64097 -4.01608 67.0505 3.82626 -0.90815 7.37323 -14.3037 5.16177 170.088 -10.1423 80.0803 -49.3195 -22.3764 -6.44704 57.38 1.77624 -1.20432 29.1173 -2.25056 9.10321 1.12874 8.01052 -89.1347 10.835 2.64715 1.4738 -0.83395 2.70943 1.3558 -23.3771 2.0819 2.20129 -3.3644 2.08191 2.20129 89.5763 -26.1496 -109.21 51.261 2.44783 -10.3454 -5.33281 -42.4845 -5.46884 -14.2753 1.54274 -18.2026 -89.7757 -55.7203 80.2064 -13.4736 -12.9856 -3.98729 -10.5784 31.9058 -0.0151715 2.8142 0.0369533 -12.6701 -2.55249 -1.97779 0.0350602 -3.55193 -1.93971 -4.04059 
2.2754 98.4077 -61.9042 -139.537 -76.0724 -146.434 -174.834 7.05408 80.1717 -27.0924 3.88067 -4.62861 70.4511 5.95351 0.580754 8.92351 -13.4089 5.25838 172.991 -1.43032 80.7873 -61.9511 -20.3275 -6.74637 55.9625 2.46692 0.203643 21.6791 0.963625 7.34512 0.906454 8.12899 -89.1327 10.5994 2.20421 1.52512 -1.07048 2.26919 1.4266 -23.6077 1.64404 2.117 -3.59503 1.64405 2.117 89.8077 -26.1744 -108.715 52.0114 2.87886 -8.06515 -5.53527 -45.2827 -5.59513 -15.7078 1.61597 -17.4745 -89.8655 -54.9487 79.933 -13.478 -13.7593 -11.5785 -10.2803 33.6875 -0.0173617 3.60091 0.0223014 -12.1707 -3.30422 -0.925778 0.450782 -2.9906 -0.962701 -3.85257 
2.13143 98.8096 -57.3445 -139.829 -75.387 -145.746 -174.823 3.00022 80.8061 -26.5992 3.29273 -4.27771 72.9804 7.41867 0.468483 10.3607 -12.7209 5.53159 175.256 5.62484 83.3306 -65.1534 -16.4319 -6.08804 63.8486 -3.0395 -1.35688 24.8546 -0.244701 7.26058 0.581386 8.24716 -89.2499 10.3685 1.50172 1.35867 -1.30221 1.56006 1.29125 -23.8354 1.02403 1.74711 -3.82275 1.02403 1.74711 90.0201 -27.5068 -107.711 51.4649 3.47059 -7.0948 -5.35239 -42.7677 -5.48087 -15.5366 1.63953 -17.7741 -89.902 -52.1887 79.3287 -12.5022 -10.6363 -17.0135 -12.0868 28.7137 -0.0183318 5.42661 -0.375198 -13.8363 -4.07268 0.298318 -1.08739 -2.76373 0.409677 -1.44699 
1.94065 99.2831 -52.9919 -139.638 -75.7441 -143.64 -175.326 -0.30326 81.8253 -25.1614 3.12081 -2.72937 75.0523 8.22302 0.153213 11.2173 -12.725 6.31214 176.686 11.5706 86.7952 -58.6183 -11.5973 -4.81235 67.1578 -5.49822 -2.05482 25.6508 0.249175 4.3084 0.215427 8.24352 -89.5443 10.3837 0.637945 0.849591 -1.28732 0.67472 0.820678 -23.8207 0.353129 1.00202 -3.80808 0.353125 1.00202 90.2568 -27.8036 -107.102 50.3516 4.45602 -5.61749 -5.41881 -43.7034 -5.52164 -15.2636 1.79243 -19.1832 -89.2747 -50.3804 79.8897 -12.3567 -10.1172 -20.28 -11.9901 25.2485 -0.0208234 7.63597 -0.853641 -14.9866 -5.47694 1.4448 -1.25445 -2.8616 1.5547 0.0678867 
1.36606 99.5202 -48.7082 -141.475 -76.7845 -143.895 -175.21 -3.48732 83.2861 -23.3933 4.05661 -1.77892 76.37 9.11482 0.454832 13.2202 -12.0396 7.13838 177.235 15.1257 89.5232 -45.083 -9.0859 -3.18308 67.0445 -5.55759 -2.0343 26.4023 0.390826 2.61237 -0.11915 8.24132 -89.7974 10.3913 -0.14449 0.415659 -1.27973 -0.126057 0.421616 -23.8146 -0.262736 0.353017 -3.80195 -0.262737 0.353011 90.4315 -27.9734 -106.677 50.3139 4.97433 -4.05176 -5.22279 -40.8602 -5.40527 -16.5661 1.89058 -18.7213 -88.901 -47.7565 79.9208 -14.8824 -12.1082 -25.1397 -10.7894 27.0451 -0.0416128 8.22405 -1.3394 -19.1489 -6.32256 2.15653 -1.44705 -3.34213 2.26773 0.96408 
0.674633 99.2978 -44.2328 -141.606 -78.3638 -143.318 -174.608 -5.84631 84.4745 -22.3122 5.83614 -1.62978 78.4887 10.3676 0.303304 13.2891 -12.1178 7.3232 177.474 16.6028 90.8287 -26.9093 -6.29166 -1.3646 62.8959 -3.2278 -0.457813 28.2086 -0.618278 3.51526 -0.310795 8.19655 -89.9137 10.481 -0.579437 0.222718 -1.18979 -0.569071 0.247996 -23.726 -0.619587 0.0382707 -3.71333 -0.619584 0.0382669 90.4549 -28.8906 -106.274 49.3807 5.86538 -2.4124 -5.20348 -40.5662 -5.3941 -15.9351 1.89974 -19.3494 -88.7859 -45.4558 79.6194 -17.1419 -12.0169 -29.6048 -10.4494 25.3371 -0.0155921 10.493 -1.88642 -20.3664 -6.29425 2.26553 -3.18152 -4.18127 2.50036 2.54691 
0.230513 98.6711 -39.3318 -151.348 -80.0595 -153.639 -174.421 -9.92074 84.779 -20.2273 8.31535 -1.53186 80.6122 12.2219 -0.00711567 14.5208 -12.1103 8.50132 176.679 15.7107 90.243 -10.364 -5.12617 -0.140966 61.1009 -2.51786 -1.79116 26.9543 -0.601534 5.48727 -0.601675 8.21843 -89.9107 10.4387 -1.15758 0.279412 -1.2318 -1.14416 0.330084 -23.771 -1.18803 -0.0814513 -3.7584 -1.18802 -0.0814531 90.2257 -30.0303 -106.3 48.4321 6.79429 -0.517758 -5.21564 -40.7514 -5.40107 -15.6386 1.8609 -19.3465 -89.1797 -45.4929 79.0061 -18.3309 -12.7454 -33.4637 -9.89326 25.6405 -0.0167969 11.8483 -2.22592 -21.0177 -5.93242 2.19829 -3.74979 -4.71396 2.47545 2.87792 
-0.334982 97.6852 -33.7342 -168.923 -81.2361 -171.459 -173.619 -14.3951 86.161 -18.5976 11.2874 -1.38398 83.2266 14.6507 -0.47777 15.5191 -11.8984 9.15599 176.432 16.9567 89.5739 -6.81355 -2.09909 0.0918303 63.333 -1.94126 0.0140704 27.7546 -0.925259 5.50475 -0.840908 8.2225 -89.9928 10.4309 -1.67177 0.161428 -1.23896 -1.66305 0.234872 -23.7825 -1.64299 -0.348611 -3.76989 -1.64297 -0.348601 90.7037 -30.3588 -105.232 48.3295 7.28729 1.06317 -5.25866 -41.3991 -5.4258 -14.2527 1.60358 -18.6718 -89.8591 -46.6595 78.2049 -19.3106 -12.8573 -36.6469 -9.59398 28.0617 -0.017238 11.4838 -2.20267 -21.4736 -5.52631 2.08102 -3.51466 -4.98151 2.34219 2.88733 
-1.13014 96.7962 -27.4567 169.281 -81.35 166.778 -172.005 -18.984 88.9278 -16.6461 14.7953 -1.18209 83.5219 15.7933 -0.875352 20.0908 -9.83905 10.5087 176.21 16.1976 89.1507 -8.3532 -3.4414 -0.124332 59.567 0.574616 0.675758 25.9607 0.305166 3.62399 -1.07431 8.104 -89.9988 10.6692 -2.13891 0.19735 -0.999973 -2.12815 0.291325 -23.5489 -2.0993 -0.454899 -3.53623 -2.0993 -0.454913 90.6901 -31.0747 -105.004 48.4903 7.8248 3.14881 -5.25493 -41.3438 -5.4236 -12.6005 1.34538 -18.1071 -89.8788 -45.9905 78.0212 -21.6218 -12.0465 -37.391 -9.27517 33.2216 -0.0185765 9.94931 -1.52694 -18.6364 -5.37921 1.61302 -3.96498 -6.03496 1.89836 2.81216 
-1.95123 96.9361 -20.6468 153.864 -80.5628 152.368 -170.544 -21.3497 92.1908 -17.8007 17.3261 0.0938527 78.0313 12.8075 -0.173874 29.3533 -5.50596 13.3301 175.564 17.298 89.5209 -15.7057 -4.93524 0.564184 56.8324 3.9476 0.252168 22.9548 1.27728 4.64834 -1.2011 7.95975 -90.1694 10.956 -2.46956 -0.101296 -0.712622 -2.47162 0.00755341 -23.265 -2.32489 -0.839229 -3.2524 -2.32488 -0.839223 90.9159 -30.8498 -104.64 48.6185 8.11326 4.31613 -5.20577 -40.6025 -5.39544 -11.1123 1.0222 -16.4825 -89.8166 -46.602 78.2574 -23.173 -11.1982 -35.2925 -9.31408 38.6284 -0.0205026 8.68479 -0.966293 -16.3726 -4.66378 1.51362 -2.94828 -7.63864 1.71093 2.16216 
-2.73176 97.3857 -14.1327 148.778 -79.9736 148.736 -169.771 -18.8831 94.7882 -26.4418 19.6293 1.40444 69.999 8.11007 2.51493 37.063 -0.420313 12.0364 174.123 16.7963 90.588 -22.5377 -6.76594 2.1984 59.049 2.4703 -1.13461 17.9536 2.87288 6.15771 -1.1079 7.86968 -90.3652 11.1307 -2.37475 -0.495856 -0.538146 -2.39427 -0.390812 -23.087 -2.1159 -1.18691 -3.0744 -2.11591 -1.18694 91.3201 -30.2506 -104.046 48.8861 7.97174 4.12705 -5.22514 -40.8957 -5.40667 -12.011 1.09031 -16.2524 -89.4767 -45.9505 78.6412 -25.7736 -10.5801 -29.5556 -9.32969 39.6013 -0.0214524 7.22746 -0.675227 -15.9837 -4.06623 1.23701 -2.99212 -7.81678 1.42984 2.68109 
-3.61413 98.0412 -9.01289 149.498 -79.2906 151.206 -168.811 -10.7541 97.9754 -42.4959 22.6592 1.99116 61.949 2.27971 3.28951 18.3849 -9.13318 7.49024 173.764 13.5774 92.658 -24.5308 -6.46469 3.01403 61.9765 0.00891735 -2.01005 17.7885 2.92477 6.20272 -0.860946 7.91849 -90.5943 11.0282 -1.98926 -0.991658 -0.641541 -2.03098 -0.903126 -23.1822 -1.59929 -1.54372 -3.16959 -1.59928 -1.54373 90.9063 -29.2378 -105.234 48.4738 7.53552 2.11032 -5.05587 -38.2429 -5.31297 -12.6441 1.27244 -17.3855 -89.1123 -46.3514 79.2988 -26.9174 -10.7429 -22.7583 -9.59395 37.0416 -0.0212537 7.72277 -0.684598 -15.0751 -4.08405 0.823961 -2.12312 -6.42679 0.999153 1.35137 
-4.1145 98.6738 -4.80444 137.745 -76.9321 139.765 -170.159 -0.22141 98.7317 -56.0667 15.9983 2.84712 52.831 -4.3984 -0.417104 5.94687 -12.6203 1.63125 172.852 9.67284 92.6899 -24.0797 -4.18543 3.81038 64.2837 -1.57623 -2.2341 19.0431 2.49185 5.95319 -0.788834 7.9872 -90.5858 10.8911 -1.84134 -0.991972 -0.778861 -1.88322 -0.909968 -23.3181 -1.45812 -1.49955 -3.30549 -1.45812 -1.49955 91.1287 -29.1831 -104.805 47.8947 6.65156 -1.72221 -5.06375 -38.369 -5.31711 -15.0897 1.53331 -17.2992 -89.0305 -46.1802 79.3899 -27.1998 -10.8289 -17.1624 -9.78156 35.8379 -0.021231 7.31119 -0.675115 -15.3876 -4.76382 -0.569164 -3.50126 -4.548 -0.243614 1.32211 
-4.18807 99.2016 -1.56678 130.631 -74.7519 131.973 -170.423 7.61372 97.8439 -60.4687 9.5645 2.27811 58.5784 -0.593948 -0.538496 10.9582 -11.1935 3.80329 172.472 6.75196 92.2462 -23.5196 -2.23055 3.71921 65.7689 -2.15118 -2.99954 20.3006 2.0251 5.79415 -0.524187 8.04179 -90.5341 10.784 -1.2902 -0.942829 -0.88659 -1.33044 -0.885132 -23.422 -0.947216 -1.28697 -3.40937 -0.947224 -1.28698 91.5188 -27.9608 -104.451 47.6154 5.80756 -5.02553 -4.85942 -34.9196 -5.21345 -18.5992 2.17092 -18.9339 -89.5081 -47.8314 79.0048 -25.1433 -11.3777 -13.0201 -9.92496 34.0024 -0.020696 6.1261 -0.484327 -14.7229 -5.14241 -2.75134 -3.32269 -3.3706 -2.42022 -0.847652 
-3.96244 99.477 1.24978 127.181 -73.9089 127.025 -169.856 13.2049 96.0194 -56.8474 10.4264 0.645189 62.7123 2.11033 -1.47716 16.1927 -10.0479 6.84955 172.038 5.65126 91.0108 -24.5818 -0.951359 3.2234 67.8519 -2.57233 -2.64104 20.5431 1.94244 5.74203 -0.184349 8.04755 -90.2791 10.7784 -0.495873 -0.508916 -0.892542 -0.517788 -0.486607 -23.4273 -0.319992 -0.634416 -3.41466 -0.32 -0.634419 91.471 -27.2104 -104.824 46.8831 5.22451 -8.15385 -4.91923 -35.9596 -5.24268 -20.0087 2.63949 -20.6201 -89.3301 -49.0286 79.5304 -22.4896 -12.7057 -9.54322 -9.72442 31.1259 -0.0251201 5.74047 -0.519596 -15.1402 -5.10676 -4.8307 -4.25832 -2.17791 -4.41711 -2.78791 
